<svg xmlns="http://www.w3.org/2000/svg" viewBox="0 0 800 600" role="img" aria-label="Силуэт Иви">
  <defs>
    <radialGradient id="scanGlow" cx="50%" cy="48%" r="58%">
      <stop offset="0" stop-color="#54ff91" stop-opacity=".26"/>
      <stop offset=".52" stop-color="#0c3b25" stop-opacity=".3"/>
      <stop offset="1" stop-color="#06110b" stop-opacity="1"/>
    </radialGradient>
    <filter id="softGlow" x="-20%" y="-20%" width="140%" height="140%">
      <feGaussianBlur stdDeviation="7" result="blur"/>
      <feMerge>
        <feMergeNode in="blur"/>
        <feMergeNode in="SourceGraphic"/>
      </feMerge>
    </filter>
  </defs>
  <rect width="800" height="600" fill="#06110b"/>
  <rect width="800" height="600" fill="url(#scanGlow)"/>
  <g opacity=".18" stroke="#51ff89" stroke-width="1">
    <path d="M0 90h800M0 150h800M0 210h800M0 270h800M0 330h800M0 390h800M0 450h800M0 510h800"/>
    <path d="M80 0v600M160 0v600M240 0v600M320 0v600M400 0v600M480 0v600M560 0v600M640 0v600M720 0v600"/>
  </g>
  <g filter="url(#softGlow)">
    <path d="M248 304c-52-44-78-108-84-190 56 18 104 54 142 108 28-16 60-24 94-24 35 0 68 9 97 26 40-58 90-96 148-116-6 88-35 154-89 198 10 23 15 49 15 77 0 99-76 153-171 153-94 0-171-54-171-153 0-29 6-55 19-79z" fill="#041208" stroke="#8bffad" stroke-width="9" stroke-linejoin="round"/>
    <path d="M308 425c-38 22-80 32-126 29 36-52 79-82 129-91" fill="#041208" stroke="#8bffad" stroke-width="9" stroke-linejoin="round"/>
    <path d="M492 425c38 22 80 32 126 29-36-52-79-82-129-91" fill="#041208" stroke="#8bffad" stroke-width="9" stroke-linejoin="round"/>
    <ellipse cx="400" cy="360" rx="116" ry="124" fill="#071a10" stroke="#c7ffd5" stroke-width="7"/>
    <path d="M332 324c20-18 43-27 68-27s48 9 68 27" fill="none" stroke="#c7ffd5" stroke-width="7" stroke-linecap="round"/>
    <circle cx="357" cy="367" r="12" fill="#b9ffd0"/>
    <circle cx="443" cy="367" r="12" fill="#b9ffd0"/>
    <path d="M383 408c12 10 24 15 37 0" fill="none" stroke="#b9ffd0" stroke-width="7" stroke-linecap="round"/>
    <path d="M400 296c-34 33-50 77-48 132 34-9 66-9 96 0 2-55-14-99-48-132z" fill="#d9ffe4" opacity=".18"/>
  </g>
  <circle cx="400" cy="358" r="194" fill="none" stroke="#51ff89" stroke-width="3" opacity=".35"/>
  <circle cx="400" cy="358" r="228" fill="none" stroke="#51ff89" stroke-width="2" opacity=".18"/>
</svg>
